<svg id="Layer_1" data-name="Layer 1" xmlns="http://www.w3.org/2000/svg" viewBox="0 0 36.1 32.64"><path d="M26.83,0a9.65,9.65,0,0,1,3.58.67,8.76,8.76,0,0,1,2.95,1.9,9,9,0,0,1,2,3,9.75,9.75,0,0,1,.75,3.87,9.62,9.62,0,0,1-.29,2.37,9.86,9.86,0,0,1-.91,2.28,17.66,17.66,0,0,1-1.61,2.4c-.66.84-1.45,1.75-2.38,2.74L18.34,32.64h-.58L5.18,19.2c-.92-1-1.72-1.9-2.37-2.74a16.78,16.78,0,0,1-1.61-2.4,9.44,9.44,0,0,1-.91-2.28A9.62,9.62,0,0,1,0,9.41,9.92,9.92,0,0,1,.74,5.54a9,9,0,0,1,2-3,8.66,8.66,0,0,1,3-1.9A9.59,9.59,0,0,1,9.26,0a8.89,8.89,0,0,1,5.48,1.73,9.66,9.66,0,0,1,3.31,4.41,9.59,9.59,0,0,1,3.31-4.41A8.88,8.88,0,0,1,26.83,0Z" fill="#da1a5b"/></svg>